# xmcd
#
# Track frame offsets: 
#        150
#        10415
#        24592
#        37402
#        50625
#        66162
#        79820
#        95897
#        106332
#        116900
#        129722
#        145925
#
# Disc length: 2125 seconds
#
# Revision: 1
# Processed by: cddbd v1.5.1PL0 Copyright (c) Steve Scherf et al.
# Submitted via: ExactAudioCopy v0.95a5
#
DISCID=b6084b0c
DTITLE=Various Artist - Sexy Country
DYEAR=1900
DGENRE=Country
TTITLE0=Billy Crash Craddock - Rub It In
TTITLE1=Conway Twitty - You've Never Been This Far Before
TTITLE2=Charly McClain - Lay Something On My Bed Beside The Blanket
TTITLE3=Charlie Rich - Behind Closed Doors
TTITLE4=Joe Stampley - Put Your Clothes Back On
TTITLE5=Johnny Duncan - It Couldn't Have Been Any Better
TTITLE6=Billy Jo Spears - Blanket On The Ground
TTITLE7=Kris Kristofferson - Help Me Make It Through The Night
TTITLE8=Don Williams - (Turn Out The Light) And Love Me Tonight
TTITLE9=Merle Haggard - Let's Chase Each Other Around The Room
TTITLE10=Exile - Kiss You All Over
TTITLE11=Mickey Gilley and Charlie McMlain - Paradise Tonight
EXTD=
EXTT0=
EXTT1=
EXTT2=
EXTT3=
EXTT4=
EXTT5=
EXTT6=
EXTT7=
EXTT8=
EXTT9=
EXTT10=
EXTT11=
PLAYORDER=
